<svg xmlns="http://www.w3.org/2000/svg" viewBox="0 0 32 32"><path d="M28.59,22.49c-.28-.5-.62-1-1-1.53a9.25,9.25,0,0,1-1.83-3.87l-.42-5.9C25.09,6.62,22.42,2,17.11,2H14.89c-5.31,0-8,4.62-8.27,9.18L6.2,17.09A9.38,9.38,0,0,1,4.37,21c-.34.52-.68,1-.91,1.45a2.22,2.22,0,0,0-.2,2.33A2.4,2.4,0,0,0,5.46,26h7.72a3,3,0,1,0,5.64,0h7.72a2.4,2.4,0,0,0,2.2-1.26A2.14,2.14,0,0,0,28.59,22.49ZM17,27a1,1,0,1,1-1-1A1,1,0,0,1,17,27Zm10-3.17c0,.08-.17.17-.42.17H5.46c-.25,0-.38-.09-.42-.17s0-.19.1-.35c.27-.46.58-.94.9-1.42,1-1.44,2-3.08,2.15-4.83l.43-5.91C8.83,7.94,10.6,4,14.89,4h2.22c4.29,0,6.06,3.94,6.27,7.33l.43,5.9C23.93,19,25,20.62,26,22.06c.32.48.63,1,.95,1.51A.25.25,0,0,1,27,23.83Z" data-name="39-Notification"/></svg>